<svg width="125" height="36" viewBox="0 0 125 36" fill="none" xmlns="http://www.w3.org/2000/svg">
<g clip-path="url(#clip0_2964_3222)">
<mask id="mask0_2964_3222" style="mask-type:luminance" maskUnits="userSpaceOnUse" x="0" y="-11" width="120" height="61">
<path d="M119.999 -10.3262H0.695801V49.3254H119.999V-10.3262Z" fill="white"/>
</mask>
<g mask="url(#mask0_2964_3222)">
<path d="M41.1858 27.4545L34.4193 20.7113L33.2959 21.8354V24.2784H30.416V11.4785H33.2959V17.7612L39.5865 11.4785L41.6232 13.5153L36.4488 18.6745L43.2232 25.4178L41.1858 27.4545Z" fill="#002E6E"/>
<path d="M52.3395 17.8778C52.3395 16.9101 51.9935 16.083 51.3016 15.3963C50.6149 14.7043 49.7871 14.3584 48.82 14.3584C47.8418 14.3584 47.0093 14.7024 46.3226 15.389C45.6413 16.0704 45.3006 16.9008 45.3006 17.8791C45.3006 18.8627 45.6413 19.6945 46.3226 20.3765C47.004 21.0579 47.8371 21.3992 48.82 21.3992C49.7983 21.3992 50.6282 21.0586 51.3102 20.3765C51.9962 19.6879 52.3395 18.8554 52.3395 17.8778ZM55.2193 17.8778C55.2193 19.6521 54.595 21.1639 53.3463 22.4127C52.0876 23.6561 50.5784 24.2784 48.82 24.2784C47.0404 24.2784 45.5293 23.6561 44.2852 22.4127C43.0418 21.1692 42.4194 19.6574 42.4194 17.8778C42.4194 16.1194 43.0418 14.6102 44.2852 13.3516C45.5339 12.1029 47.0451 11.4785 48.82 11.4785C50.5678 11.4785 52.0724 12.1082 53.331 13.3675C54.5897 14.6255 55.2193 16.1287 55.2193 17.8778Z" fill="#002E6E"/>
<path d="M64.3367 24.2778L58.8964 16.7385V24.2778H56.0166V11.4785H58.8964L64.3367 19.0099V11.4785H67.2246V24.2778H64.3367Z" fill="#002E6E"/>
<path d="M71.6958 14.3584V16.4349H76.8159V19.3147H71.6958V24.2784H68.8159V11.4785H78.4158V14.3584H71.6958Z" fill="#002E6E"/>
<path d="M87.7035 24.2778V19.3141H82.2646V24.2778H79.3848V11.4785H82.2646V16.4349H87.7035V11.4785H90.5913V24.2778H87.7035Z" fill="#002E6E"/>
<path d="M102.983 18.6738C102.983 20.2347 102.44 21.559 101.352 22.6466C100.264 23.7343 98.9427 24.2778 97.3871 24.2778C95.8263 24.2778 94.502 23.7343 93.4144 22.6466C92.3267 21.559 91.7832 20.2347 91.7832 18.6738V11.4785H94.663V18.6738C94.663 19.4281 94.9282 20.071 95.4591 20.6019C95.99 21.1328 96.6329 21.3979 97.3871 21.3979C98.1414 21.3979 98.7823 21.1328 99.3073 20.6019C99.8382 20.071 100.103 19.4281 100.103 18.6738V11.4785H102.983V18.6738Z" fill="#002E6E"/>
<path d="M112.491 20.36C112.491 20.0736 112.386 19.8291 112.178 19.6263C111.976 19.4181 111.733 19.3141 111.453 19.3141H107.067V21.3979H111.453C111.739 21.3979 111.983 21.2965 112.186 21.0937C112.39 20.8902 112.491 20.6456 112.491 20.36ZM112.17 15.3956C112.17 15.1252 112.072 14.8833 111.873 14.6699C111.681 14.4618 111.442 14.3577 111.155 14.3577H107.066V16.4342H111.132C111.418 16.4342 111.663 16.3328 111.865 16.13C112.069 15.9272 112.17 15.6826 112.17 15.3956ZM115.394 20.7113C115.394 21.7154 114.986 22.5684 114.169 23.271C113.389 23.9424 112.489 24.2778 111.468 24.2778H104.187V11.4785H111.132C112.137 11.4785 113.034 11.8059 113.825 12.4621C114.664 13.1488 115.082 13.9839 115.082 14.9675C115.082 16.1015 114.613 17.0069 113.677 17.6836C114.822 18.3749 115.394 19.3843 115.394 20.7113Z" fill="#002E6E"/>
<path d="M7.37752 24.1947C4.65476 21.472 4.65476 17.0578 7.37752 14.3343L17.4573 4.25586L18.8817 5.68021C18.1559 6.40597 18.1559 7.58375 18.8817 8.30952C19.6074 9.03528 20.7852 9.03528 21.511 8.30952L22.9353 9.73386L13.9756 18.6915L8.89466 14.7559L13.4023 19.2635L7.92499 24.7409L7.37752 24.1947Z" fill="#002E6E"/>
<path d="M13.4043 30.2217L7.3795 24.1969C4.6567 21.4742 4.6567 17.06 7.3795 14.3365L7.92697 13.7891L18.8916 24.7537C18.8684 24.7643 18.8465 24.7795 18.8273 24.7988L18.5569 25.0705C18.4661 25.1613 18.4661 25.3084 18.5569 25.3986C18.6477 25.4894 18.7948 25.4894 18.885 25.3986L19.1567 25.1268C19.1759 25.1076 19.1912 25.0864 19.2018 25.0625L22.936 28.7967L21.5116 30.2211C20.7859 29.4953 19.6081 29.4953 18.8823 30.2211C18.1566 30.9468 18.1566 32.1246 18.8823 32.8504L17.458 34.2741L13.7331 30.5492L14.0035 30.2787C14.0943 30.1879 14.0943 30.0408 14.0035 29.9507C13.9127 29.8599 13.7655 29.8599 13.6754 29.9507L13.4043 30.2217ZM14.2176 29.4078C14.1268 29.4986 14.1268 29.6458 14.2176 29.7359C14.3084 29.8267 14.4555 29.8267 14.5456 29.7359L15.0878 29.1938C15.1786 29.103 15.1786 28.9558 15.0878 28.8657C14.997 28.7749 14.8499 28.7749 14.7597 28.8657L14.2176 29.4078ZM15.3019 28.3235C15.2111 28.4143 15.2111 28.5614 15.3019 28.6516C15.3927 28.7424 15.5398 28.7424 15.63 28.6516L16.1721 28.1094C16.2629 28.0186 16.2629 27.8715 16.1721 27.7813C16.0813 27.6905 15.9342 27.6905 15.8441 27.7813L15.3019 28.3235ZM16.3862 27.2392C16.2954 27.33 16.2954 27.4771 16.3862 27.5673C16.477 27.6581 16.6242 27.6581 16.7143 27.5673L17.2565 27.0251C17.3473 26.9343 17.3473 26.7871 17.2565 26.697C17.1657 26.6062 17.0185 26.6062 16.9284 26.697L16.3862 27.2392ZM17.4712 26.1542C17.3804 26.245 17.3804 26.3921 17.4712 26.4823C17.562 26.5731 17.7092 26.5731 17.7993 26.4823L18.3415 25.9401C18.4323 25.8493 18.4323 25.7021 18.3415 25.612C18.2507 25.5212 18.1035 25.5212 18.0134 25.612L17.4712 26.1542Z" fill="#002E6E"/>
</g>
</g>
<defs>
<clipPath id="clip0_2964_3222">
<rect width="125" height="35" fill="white" transform="translate(0 0.5)"/>
</clipPath>
</defs>
</svg>
