<?xml version="1.0" encoding="UTF-8"?> <svg xmlns="http://www.w3.org/2000/svg" width="119" height="48" viewBox="0 0 119 48" fill="none"><path d="M61.5749 18.0928C62.9033 18.0928 63.9416 18.3797 64.6903 18.9535C65.4389 19.5273 65.8133 20.388 65.8133 21.536C65.8133 22.1008 65.6341 22.6065 65.2757 23.0523C64.9173 23.4981 64.4443 23.8285 63.8558 24.044C64.6191 24.2069 65.2219 24.5829 65.6647 25.1713C66.1075 25.7601 66.3289 26.4443 66.3289 27.2249C66.3289 28.3904 65.9503 29.2804 65.1929 29.8948C64.4356 30.5095 63.4103 30.8163 62.1171 30.8163H56V29.7153L57.4246 29.4706V19.4472L56 19.2025V18.0928H57.4246H61.5749ZM59.1453 23.5021H62.0204C62.6377 23.4845 63.1374 23.3013 63.519 22.9515C63.9004 22.6021 64.0915 22.1184 64.0915 21.5011C64.0915 20.8139 63.8761 20.2996 63.4449 19.9585C63.0137 19.6174 62.3904 19.4475 61.5749 19.4475H59.1453V23.5021V23.5021ZM59.1453 24.8475V29.4702H62.1168C62.9033 29.4702 63.5134 29.2767 63.9476 28.8891C64.3814 28.5018 64.5985 27.9529 64.5985 27.2418C64.5985 26.4965 64.4163 25.9107 64.0523 25.4855C63.6879 25.0603 63.1304 24.8475 62.3787 24.8475H59.1453Z" fill="#414042"></path><path d="M74.0813 30.8169C74.0288 30.5606 73.9882 30.3306 73.9589 30.1268C73.9297 29.923 73.9094 29.7189 73.8978 29.5151C73.5657 29.9403 73.1504 30.2943 72.6524 30.5766C72.1544 30.8588 71.6225 31.0005 71.0576 31.0005C70.0733 31.0005 69.3246 30.7598 68.8119 30.2794C68.2993 29.7987 68.043 29.1214 68.043 28.2478C68.043 27.3508 68.4057 26.659 69.1308 26.1723C69.8562 25.6859 70.8509 25.4426 72.1152 25.4426H73.8891V24.3415C73.8891 23.7879 73.7143 23.3498 73.3649 23.0263C73.0151 22.7028 72.5284 22.5413 71.9054 22.5413C71.4739 22.5413 71.0939 22.5968 70.7648 22.7075C70.4356 22.8182 70.169 22.9695 69.9652 23.1616L69.7817 24.158H68.4532V22.3225C68.8841 21.9791 69.4057 21.7038 70.0174 21.497C70.6291 21.2902 71.2933 21.1865 72.0101 21.1865C73.0819 21.1865 73.95 21.4605 74.6142 22.008C75.2781 22.5556 75.6102 23.3395 75.6102 24.3588V28.9113C75.6102 29.0337 75.6116 29.1534 75.6149 29.2697C75.6175 29.3864 75.6249 29.5028 75.6365 29.6195L76.3356 29.7155V30.8166H74.0813V30.8169ZM71.311 29.5583C71.8821 29.5583 72.4034 29.4217 72.8752 29.1477C73.3472 28.8741 73.685 28.545 73.8891 28.1603V26.6045H72.0537C71.3489 26.6045 70.791 26.7677 70.3801 27.0942C69.9692 27.4206 69.7641 27.8166 69.7641 28.2823C69.7641 28.6962 69.8921 29.0121 70.1487 29.2308C70.405 29.4492 70.7927 29.5583 71.311 29.5583Z" fill="#414042"></path><path d="M77.5156 29.7159L78.9398 29.4712V22.7158L77.5156 22.4714V21.3614H80.4781L80.6004 22.7683C80.9149 22.2673 81.3095 21.8784 81.7846 21.6018C82.2594 21.3252 82.7996 21.1865 83.4057 21.1865C84.4249 21.1865 85.2145 21.4851 85.7737 22.0821C86.3332 22.6796 86.6125 23.6011 86.6125 24.8478V29.4705L88.037 29.7152V30.8163H83.4665V29.7152L84.891 29.4705V24.8827C84.891 24.0496 84.7261 23.4582 84.3974 23.1088C84.0682 22.759 83.5656 22.5845 82.89 22.5845C82.3947 22.5845 81.9562 22.7038 81.5749 22.9425C81.1932 23.1816 80.889 23.5077 80.6616 23.9213V29.4702L82.0858 29.7149V30.816H77.5156V29.7159Z" fill="#414042"></path><path d="M88.9023 22.6364V21.3604H90.3791V20.3381C90.3791 19.278 90.6909 18.4565 91.3143 17.874C91.9376 17.2912 92.8 17 93.9011 17C94.2854 17 94.67 17.0469 95.0547 17.14C95.439 17.233 95.8815 17.3644 96.3828 17.5332L96.0946 18.9315C95.7854 18.8092 95.4566 18.7041 95.1069 18.617C94.7571 18.5293 94.3991 18.4857 94.0321 18.4857C93.3449 18.4857 92.8509 18.6373 92.551 18.9398C92.2511 19.243 92.1009 19.7088 92.1009 20.3381V21.3604H97.4925V29.4702L98.9171 29.7149V30.816H94.3466V29.7149L95.7711 29.4702V22.6364H92.1009V29.4702L93.5251 29.7149V30.816H88.9549V29.7149L90.3791 29.4702V22.6364H88.9023Z" fill="#414042"></path><path d="M104.363 29.6544C104.934 29.6544 105.437 29.4785 105.87 29.1258C106.304 28.773 106.522 28.3409 106.522 27.8282H108.068L108.086 27.8804C108.115 28.6962 107.752 29.42 106.998 30.052C106.243 30.684 105.365 31.0005 104.363 31.0005C102.988 31.0005 101.938 30.5517 101.213 29.6544C100.487 28.7574 100.125 27.6301 100.125 26.2727V25.9057C100.125 24.5599 100.489 23.4369 101.217 22.5369C101.945 21.6367 102.994 21.1865 104.363 21.1865C105.12 21.1865 105.801 21.3119 106.404 21.5622C107.006 21.8129 107.506 22.1566 107.902 22.5938L107.981 24.6912H106.609L106.233 23.2055C106.029 23.0074 105.767 22.8471 105.447 22.7248C105.126 22.6028 104.765 22.5413 104.363 22.5413C103.46 22.5413 102.815 22.8664 102.428 23.5157C102.04 24.1653 101.846 24.9622 101.846 25.9057V26.2727C101.846 27.2394 102.039 28.045 102.423 28.6889C102.808 29.3329 103.454 29.6544 104.363 29.6544Z" fill="#414042"></path><path d="M109.77 26.0017C109.77 24.6034 110.148 23.4515 110.906 22.5456C111.663 21.6397 112.691 21.1865 113.99 21.1865C115.295 21.1865 116.327 21.638 117.088 22.5409C117.848 23.4442 118.228 24.5978 118.228 26.0014V26.1936C118.228 27.6035 117.849 28.7571 117.092 29.654C116.335 30.5513 115.307 31.0001 114.008 31.0001C112.697 31.0001 111.663 30.55 110.906 29.6497C110.148 28.7494 109.77 27.5975 109.77 26.1936V26.0017ZM111.491 26.1939C111.491 27.1962 111.702 28.0234 112.125 28.676C112.547 29.3286 113.174 29.6544 114.008 29.6544C114.823 29.6544 115.443 29.3286 115.869 28.676C116.295 28.0234 116.507 27.1962 116.507 26.1939V26.0017C116.507 25.0114 116.294 24.1872 115.869 23.529C115.444 22.8707 114.817 22.5413 113.99 22.5413C113.163 22.5413 112.54 22.8704 112.12 23.529C111.701 24.1876 111.491 25.0117 111.491 26.0017V26.1939Z" fill="#414042"></path><path d="M24.1818 29.7166C27.3003 29.7166 29.8284 27.1885 29.8284 24.0699C29.8284 20.9514 27.3003 18.4233 24.1818 18.4233C21.0632 18.4233 18.5352 20.9514 18.5352 24.0699C18.5352 27.1885 21.0632 29.7166 24.1818 29.7166Z" fill="#414042"></path><path d="M24.1818 29.7166C27.3003 29.7166 29.8284 27.1885 29.8284 24.0699C29.8284 20.9514 27.3003 18.4233 24.1818 18.4233C21.0632 18.4233 18.5352 20.9514 18.5352 24.0699C18.5352 27.1885 21.0632 29.7166 24.1818 29.7166Z" stroke="black" stroke-miterlimit="10"></path><path d="M12.2687 24.6679C12.5825 30.9844 17.7874 36.0126 24.1816 36.0126C30.7775 36.0126 36.1243 30.6656 36.1243 24.0699C36.1243 17.4737 30.7775 12.1269 24.1816 12.1269C22.1389 12.1269 20.2165 12.6417 18.5352 13.5461V3.17529L12.2383 9.4717V24.6819L12.2687 24.6679Z" fill="white"></path><path d="M24.1818 29.7166C27.3003 29.7166 29.8284 27.1885 29.8284 24.0699C29.8284 20.9514 27.3003 18.4233 24.1818 18.4233C21.0632 18.4233 18.5352 20.9514 18.5352 24.0699C18.5352 27.1885 21.0632 29.7166 24.1818 29.7166Z" fill="#414042"></path><path d="M46.4194 20.2369L39.9584 13.7762L37.9995 11.8173L27.7632 1.5807C25.6553 -0.526901 22.2383 -0.526901 20.131 1.5807L18.5363 3.17534V13.5459C20.2179 12.6417 22.1401 12.1267 24.1827 12.1267C30.7786 12.1267 36.1254 17.4735 36.1254 24.0697C36.1254 28.1095 34.1142 31.6738 31.0441 33.8353C29.1016 35.2025 26.7385 36.0124 24.1824 36.0124C20.6754 36.0124 17.5323 34.4933 15.3516 32.0849C17.428 36.2457 21.7145 39.1106 26.681 39.1106H35.1774L46.4191 27.8691C48.527 25.7615 48.527 22.3445 46.4194 20.2369Z" fill="#414042"></path><path d="M15.3521 32.0851C13.557 30.1027 12.4119 27.5196 12.2704 24.6679L12.2402 24.6819V9.47168L1.5807 20.131C-0.526901 22.2386 -0.526901 25.6555 1.5807 27.7629L20.2372 46.4191C22.3448 48.527 25.7615 48.527 27.8694 46.4191L35.178 39.1108H26.6815C21.7151 39.1105 17.4286 36.2459 15.3521 32.0851Z" fill="#2EB895"></path><path d="M46.4189 20.237L39.9579 13.7763L37.999 11.8174V13.7763V22.9088C37.999 27.7455 35.1497 31.9061 31.0441 33.8356C29.1016 35.2028 26.7385 36.0127 24.1824 36.0127C20.6754 36.0127 17.5323 34.4936 15.3516 32.0852C17.428 36.2459 21.7145 39.1109 26.681 39.1109H35.1774L46.4191 27.8694C48.5265 25.7615 48.5265 22.3446 46.4189 20.237Z" fill="#044D72"></path></svg> 