<svg width="215" height="71" viewBox="0 0 215 71" fill="none" xmlns="http://www.w3.org/2000/svg">
<rect x="3.90926" y="3.90913" width="66.4262" height="66.4262" rx="33.2131" fill="black"/>
<rect x="3.90926" y="3.90913" width="66.4262" height="66.4262" rx="33.2131" stroke="black" stroke-width="0.670972"/>
<g clip-path="url(#clip0_888_228)">
<path fill-rule="evenodd" clip-rule="evenodd" d="M38.7052 11.1847C35.0908 15.4689 31.7416 20.0119 29.7719 25.3174C28.7904 27.9769 27.6364 32.1086 27.464 34.9338C27.3844 36.1342 27.2518 37.8917 28.9695 37.6065C29.3939 37.5336 29.9046 37.1622 30.2494 36.9102C31.231 36.2072 32.1462 35.67 33.2604 35.1726C34.5602 34.6022 36.1254 34.1513 37.538 34.2441C39.196 34.3436 40.8142 34.841 42.0677 35.9817C42.6778 36.5322 43.4736 37.832 44.3889 37.832C46.0667 37.832 46.2458 32.8249 46.2458 31.6974C46.2458 30.0394 45.7816 28.2952 45.3107 26.7102C43.719 21.3648 41.1657 16.1785 38.7052 11.1847Z" fill="white"/>
<path fill-rule="evenodd" clip-rule="evenodd" d="M45.8276 28.3558C46.3715 27.812 46.8755 27.4141 46.8755 26.6381C47.9565 25.4046 48.9314 24.1976 50.0655 23.0104C50.2114 23.2624 51.1465 23.2492 51.6903 22.8977C51.7235 22.8778 51.7633 22.8977 51.8031 22.8977C52.2739 22.8977 52.8708 23.3553 53.3152 23.2425C53.7197 23.1431 53.9187 22.9375 54.0182 22.5396C54.0579 22.3738 53.859 22.3273 53.7728 22.1947C53.9253 22.0422 54.3696 22.2875 54.5885 21.6177C54.8206 20.928 54.1442 20.5831 53.8988 20.4571C54.0712 20.4505 54.3962 19.9266 54.363 19.648C54.3431 19.5087 54.0314 19.1572 53.8988 19.0777C53.7927 19.0113 53.6667 18.9715 53.5407 18.945C53.1162 18.8721 52.5923 18.9782 52.1479 18.8323C52.0949 18.819 52.0352 18.7726 52.0352 18.7195C52.0286 18.3548 52.2607 17.7513 52.1479 17.4528C51.8959 16.7432 51.7633 16.3784 51.0006 16.1728C50.5828 16.0601 50.291 16.1994 49.9527 16.405C49.9063 16.4315 49.8599 16.4713 49.8334 16.5177C49.8267 16.5376 49.8267 16.7366 49.8334 16.7498C49.8599 16.7962 49.9328 16.8161 49.9527 16.8626C50.1915 17.4727 50.5098 19.0113 50.2976 19.648C50.1517 20.0791 49.6145 20.5367 49.4885 21.1601C49.3758 21.7172 49.2299 22.3937 49.4885 22.5396L46.8158 26.0081C46.3847 25.3648 45.695 25.451 44.9522 25.451L45.8276 28.3558Z" fill="black"/>
<path fill-rule="evenodd" clip-rule="evenodd" d="M30.13 24.0502C28.7838 23.8247 28.8633 23.9971 28.5052 24.5144C27.2916 24.4879 26.2835 24.6404 25.1362 25.2042C24.3735 25.5755 24.4597 26.9815 24.3271 27.6315C24.3204 27.6845 24.2674 27.7508 24.2143 27.7508C23.9623 27.4856 23.5843 27.8569 23.6373 28.2217C23.1134 28.2615 22.5165 28.8716 22.4767 29.1436C22.3573 29.9261 20.6264 28.5865 20.0362 28.6793C19.8372 28.7125 19.7178 29.0905 19.6913 29.2563C19.6515 29.4951 19.6847 29.82 19.9168 29.9593C20.1887 30.1185 22.0788 30.2644 22.1319 30.4169C22.1783 30.5628 21.3095 30.8281 21.1968 30.8811C20.4805 31.1995 20.4208 31.2459 20.1489 31.929C19.8637 32.632 20.9049 32.685 21.4289 32.6187C21.8997 32.559 22.5563 31.5178 23.0537 31.8096C23.5312 32.1014 23.2129 33.0034 23.1665 33.4345C23.1068 33.9915 22.9874 34.5884 23.6373 34.5884C24.3138 34.5884 24.3867 33.9385 24.4464 33.3217C24.4663 33.0896 24.4265 32.8508 24.4464 32.6187C24.4796 32.2341 24.8046 31.0867 25.3749 31.226C25.9983 31.3785 25.7131 32.1545 26.9997 32.1545C27.2053 32.1545 27.4242 32.0616 27.5767 31.929C27.7425 31.7765 27.842 31.551 27.9216 31.3387C28.0012 31.1199 28.0343 30.8811 28.0343 30.649C28.0343 30.3705 27.8155 30.1914 27.5767 30.1914C27.3181 30.1914 27.013 30.4169 26.887 30.4169C26.7942 30.4169 26.7212 30.3439 26.6416 30.3042C26.2901 30.1317 25.8789 29.8797 25.607 29.6012C25.6004 29.5945 25.3882 29.2828 25.3749 29.2563C25.7529 29.1104 25.5075 28.0891 25.1362 28.1023C25.1163 28.0294 25.1229 27.9432 25.1362 27.8636C25.2356 27.3198 25.428 26.0066 25.8391 25.6618C26.4493 25.1511 27.6895 24.8924 28.5052 24.7399C28.5118 25.2904 29.1021 25.4893 29.5464 25.6618L30.13 24.0502Z" fill="black"/>
<path fill-rule="evenodd" clip-rule="evenodd" d="M38.7052 11.4172C34.4541 15.6683 31.788 20.0521 29.6592 25.6627C34.3016 23.8986 40.6683 24.091 45.1979 26.127C43.5399 21.4779 41.2718 15.7478 38.7052 11.4172Z" fill="black"/>
<path fill-rule="evenodd" clip-rule="evenodd" d="M37.1732 20.0913C39.6005 20.0913 41.6432 21.8356 41.6432 24.1369C41.6432 26.4249 39.4016 28.2222 36.9809 28.1691C34.0164 28.1028 32.637 26.5575 32.637 24.2695C32.637 21.9682 34.7459 20.0913 37.1732 20.0913Z" fill="url(#paint0_radial_888_228)" stroke="#231F20" stroke-width="0.862159"/>
<path d="M53.6604 19.0771L53.0834 19.1899L52.2743 19.3026L51.8034 19.6476V20.2245" stroke="#666666" stroke-width="0.019896"/>
<path d="M53.8992 20.4561H52.7386L51.9229 20.6882L51.6908 21.0397L51.9229 21.5039" stroke="#666666" stroke-width="0.019896"/>
<path d="M53.7732 22.193L53.0835 21.9609L52.3938 21.848L51.8035 22.0802L51.6908 22.6638" stroke="#666666" stroke-width="0.019896"/>
<path fill-rule="evenodd" clip-rule="evenodd" d="M38.7052 11.1847C35.0908 15.4689 31.7416 20.0119 29.7719 25.3174C28.7904 27.9769 27.6364 32.1086 27.464 34.9338C27.3844 36.1342 27.2518 37.8917 28.9695 37.6065C29.3939 37.5336 29.9046 37.1622 30.2494 36.9102C31.231 36.2072 32.1462 35.67 33.2604 35.1726C34.5602 34.6022 36.1254 34.1513 37.538 34.2441C39.196 34.3436 40.8142 34.841 42.0677 35.9817C42.6778 36.5321 43.4736 37.832 44.3889 37.832C46.0667 37.832 46.2458 32.8249 46.2458 31.6974C46.2458 30.0394 45.7816 28.2952 45.3107 26.7102C43.719 21.3648 41.1657 16.1785 38.7052 11.1847Z" stroke="#231F20" stroke-width="0.994799"/>
</g>
<path d="M24.8371 60.2481C23.9566 60.2481 23.1862 60.108 22.5259 59.8279C21.8756 59.5477 21.3703 59.1375 21.0101 58.5973C20.6499 58.047 20.4698 57.3766 20.4698 56.5862C20.4698 56.196 20.5148 55.7858 20.6049 55.3556C20.9551 53.7347 21.6604 52.4841 22.721 51.6036C23.7816 50.7231 25.2623 50.2829 27.1633 50.2829C27.7636 50.2829 28.2989 50.3179 28.7692 50.388C29.2394 50.458 29.6746 50.563 30.0749 50.7031L29.5496 53.1194C29.1494 52.9493 28.7191 52.8342 28.2589 52.7742C27.8087 52.7142 27.3384 52.6842 26.8482 52.6842C25.9877 52.6842 25.2623 52.8943 24.672 53.3145C24.0817 53.7347 23.6865 54.4151 23.4864 55.3556C23.3964 55.7458 23.3513 56.0859 23.3513 56.3761C23.3513 56.8864 23.5014 57.2616 23.8016 57.5017C24.1117 57.7318 24.627 57.8469 25.3474 57.8469C25.6075 57.8469 25.8526 57.8319 26.0828 57.8018C26.3229 57.7618 26.553 57.7118 26.7731 57.6518L27.0733 56.241H25.1523L25.5275 54.5001H29.8047L28.7692 59.3627C28.3489 59.5928 27.8087 59.7979 27.1483 59.978C26.498 60.1581 25.7276 60.2481 24.8371 60.2481ZM34.1475 60.2481C33.3271 60.2481 32.6317 60.113 32.0614 59.8429C31.4911 59.5628 31.0559 59.1876 30.7557 58.7173C30.4656 58.2371 30.3205 57.6968 30.3205 57.0965C30.3205 56.8363 30.3505 56.5662 30.4105 56.286L31.6562 50.433H34.4777L33.277 56.0759C33.217 56.3561 33.187 56.6012 33.187 56.8113C33.187 57.1815 33.302 57.4467 33.5322 57.6067C33.7623 57.7668 34.1375 57.8469 34.6578 57.8469C35.2981 57.8469 35.7783 57.7118 36.0985 57.4416C36.4187 57.1715 36.6438 56.7163 36.7739 56.0759L37.9745 50.433H40.796L39.5353 56.3761C39.2552 57.7368 38.6749 58.7223 37.7944 59.3326C36.9139 59.943 35.6983 60.2481 34.1475 60.2481ZM41.6882 60.2481C41.268 60.2481 40.8728 60.2181 40.5026 60.1581C40.1324 60.108 39.7872 60.023 39.4671 59.9029L39.9623 57.5617C40.4226 57.7618 40.9729 57.8619 41.6132 57.8619C42.2135 57.8619 42.6387 57.7518 42.8889 57.5317C43.139 57.3116 43.3141 56.9464 43.4141 56.4361L44.6898 50.433H47.5113L46.1456 56.8864C45.9154 57.9769 45.4402 58.8124 44.7198 59.3927C43.9994 59.963 42.9889 60.2481 41.6882 60.2481Z" fill="white"/>
<path d="M24.5307 50.3179C24.1105 50.3179 23.7153 50.2879 23.3451 50.2279C22.9749 50.1778 22.6297 50.0928 22.3096 49.9727L22.8048 47.6315C23.2651 47.8316 23.8154 47.9317 24.4557 47.9317C25.056 47.9317 25.4812 47.8216 25.7314 47.6015C25.9815 47.3814 26.1566 47.0162 26.2566 46.5059L27.5323 40.5028H30.3538L28.9881 46.9562C28.7579 48.0467 28.2827 48.8822 27.5623 49.4625C26.8419 50.0328 25.8314 50.3179 24.5307 50.3179ZM34.0497 50.3179C33.2293 50.3179 32.5339 50.1828 31.9636 49.9127C31.3933 49.6326 30.9581 49.2574 30.6579 48.7871C30.3678 48.3069 30.2227 47.7666 30.2227 47.1663C30.2227 46.9061 30.2527 46.636 30.3127 46.3558L31.5584 40.5028H34.3799L33.1792 46.1457C33.1192 46.4259 33.0892 46.671 33.0892 46.8811C33.0892 47.2513 33.2043 47.5164 33.4344 47.6765C33.6645 47.8366 34.0397 47.9167 34.56 47.9167C35.2003 47.9167 35.6806 47.7816 36.0007 47.5114C36.3209 47.2413 36.546 46.7861 36.6761 46.1457L37.8767 40.5028H40.6982L39.4375 46.4459C39.1574 47.8066 38.5771 48.7921 37.6966 49.4024C36.8162 50.0128 35.6005 50.3179 34.0497 50.3179ZM44.8622 50.3179C43.9817 50.3179 43.2113 50.1778 42.5509 49.8977C41.9006 49.6175 41.3953 49.2073 41.0352 48.667C40.675 48.1168 40.4949 47.4464 40.4949 46.656C40.4949 46.2658 40.5399 45.8556 40.6299 45.4253C40.9801 43.8045 41.6855 42.5538 42.7461 41.6734C43.8066 40.7929 45.2874 40.3527 47.1884 40.3527C47.7887 40.3527 48.324 40.3877 48.7942 40.4577C49.2645 40.5278 49.6997 40.6328 50.0999 40.7729L49.5746 43.1892C49.1744 43.0191 48.7442 42.904 48.2839 42.844C47.8337 42.784 47.3635 42.754 46.8732 42.754C46.0128 42.754 45.2874 42.9641 44.6971 43.3843C44.1068 43.8045 43.7116 44.4849 43.5115 45.4253C43.4214 45.8156 43.3764 46.1557 43.3764 46.4459C43.3764 46.9562 43.5265 47.3313 43.8266 47.5715C44.1368 47.8016 44.652 47.9167 45.3724 47.9167C45.6326 47.9167 45.8777 47.9016 46.1078 47.8716C46.3479 47.8316 46.5781 47.7816 46.7982 47.7216L47.0983 46.3108H45.1773L45.5525 44.5699H49.8298L48.7942 49.4324C48.374 49.6626 47.8337 49.8677 47.1734 50.0478C46.523 50.2279 45.7526 50.3179 44.8622 50.3179Z" fill="black"/>
<g clip-path="url(#clip1_888_228)">
<rect width="67.0972" height="67.0972" rx="33.5486" fill="white"/>
<rect x="0.0669861" y="47.1695" width="67.0972" height="22.1421" fill="#F02D32"/>
<g clip-path="url(#clip2_888_228)">
<path fill-rule="evenodd" clip-rule="evenodd" d="M35.1318 7.611C31.5173 11.8953 28.1682 16.4382 26.1985 21.7438C25.217 24.4032 24.063 28.5349 23.8906 31.3602C23.811 32.5606 23.6783 34.318 25.396 34.0329C25.8205 33.9599 26.3311 33.5885 26.676 33.3365C27.6575 32.6335 28.5727 32.0963 29.6869 31.5989C30.9868 31.0286 32.5519 30.5776 33.9645 30.6704C35.6225 30.7699 37.2408 31.2673 38.4942 32.408C39.1043 32.9585 39.9002 34.2584 40.8154 34.2584C42.4933 34.2584 42.6724 29.2512 42.6724 28.1238C42.6724 26.4658 42.2081 24.7215 41.7372 23.1365C40.1456 17.7911 37.5922 12.6048 35.1318 7.611Z" fill="white"/>
<path fill-rule="evenodd" clip-rule="evenodd" d="M42.2544 24.7822C42.7982 24.2384 43.3023 23.8404 43.3023 23.0645C44.3833 21.831 45.3582 20.6239 46.4923 19.4368C46.6382 19.6888 47.5733 19.6756 48.1171 19.3241C48.1503 19.3042 48.1901 19.3241 48.2299 19.3241C48.7007 19.3241 49.2976 19.7817 49.7419 19.6689C50.1465 19.5694 50.3455 19.3638 50.4449 18.9659C50.4847 18.8001 50.2858 18.7537 50.1996 18.6211C50.3521 18.4685 50.7964 18.7139 51.0153 18.0441C51.2474 17.3544 50.5709 17.0095 50.3256 16.8835C50.498 16.8769 50.823 16.3529 50.7898 16.0744C50.7699 15.9351 50.4582 15.5836 50.3256 15.504C50.2194 15.4377 50.0934 15.3979 49.9674 15.3714C49.543 15.2984 49.0191 15.4045 48.5747 15.2586C48.5217 15.2454 48.462 15.199 48.462 15.1459C48.4553 14.7811 48.6875 14.1776 48.5747 13.8792C48.3227 13.1696 48.1901 12.8048 47.4274 12.5992C47.0096 12.4865 46.7178 12.6257 46.3795 12.8313C46.3331 12.8579 46.2867 12.8977 46.2601 12.9441C46.2535 12.964 46.2535 13.1629 46.2601 13.1762C46.2867 13.2226 46.3596 13.2425 46.3795 13.2889C46.6183 13.8991 46.9366 15.4377 46.7244 16.0744C46.5785 16.5055 46.0413 16.9631 45.9153 17.5865C45.8025 18.1436 45.6566 18.82 45.9153 18.9659L43.2426 22.4345C42.8115 21.7912 42.1218 21.8774 41.379 21.8774L42.2544 24.7822Z" fill="black"/>
<path fill-rule="evenodd" clip-rule="evenodd" d="M26.5566 20.4765C25.2103 20.251 25.2899 20.4235 24.9317 20.9408C23.7181 20.9143 22.71 21.0668 21.5627 21.6305C20.8 22.0019 20.8862 23.4079 20.7536 24.0578C20.7469 24.1109 20.6939 24.1772 20.6408 24.1772C20.3888 23.9119 20.0108 24.2833 20.0639 24.6481C19.5399 24.6879 18.943 25.298 18.9033 25.5699C18.7839 26.3525 17.0529 25.0128 16.4627 25.1057C16.2637 25.1388 16.1443 25.5169 16.1178 25.6827C16.078 25.9214 16.1112 26.2464 16.3433 26.3856C16.6152 26.5448 18.5053 26.6907 18.5584 26.8433C18.6048 26.9892 17.736 27.2544 17.6233 27.3075C16.907 27.6258 16.8473 27.6723 16.5754 28.3553C16.2902 29.0583 17.3315 29.1114 17.8554 29.0451C18.3263 28.9854 18.9828 27.9442 19.4802 28.236C19.9577 28.5278 19.6394 29.4297 19.593 29.8608C19.5333 30.4179 19.4139 31.0148 20.0639 31.0148C20.7403 31.0148 20.8133 30.3648 20.873 29.7481C20.8929 29.5159 20.8531 29.2772 20.873 29.0451C20.9061 28.6604 21.2311 27.5131 21.8014 27.6524C22.4248 27.8049 22.1397 28.5808 23.4263 28.5808C23.6319 28.5808 23.8507 28.488 24.0033 28.3553C24.1691 28.2028 24.2685 27.9773 24.3481 27.7651C24.4277 27.5462 24.4609 27.3075 24.4609 27.0754C24.4609 26.7968 24.242 26.6178 24.0033 26.6178C23.7446 26.6178 23.4395 26.8433 23.3135 26.8433C23.2207 26.8433 23.1477 26.7703 23.0681 26.7305C22.7167 26.5581 22.3055 26.3061 22.0336 26.0275C22.0269 26.0209 21.8147 25.7092 21.8014 25.6827C22.1795 25.5367 21.9341 24.5154 21.5627 24.5287C21.5428 24.4557 21.5494 24.3695 21.5627 24.2899C21.6622 23.7461 21.8545 22.433 22.2657 22.0881C22.8758 21.5774 24.116 21.3188 24.9317 21.1663C24.9384 21.7167 25.5286 21.9157 25.973 22.0881L26.5566 20.4765Z" fill="black"/>
<path fill-rule="evenodd" clip-rule="evenodd" d="M35.132 7.84354C30.8809 12.0947 28.2148 16.4784 26.086 22.0891C30.7284 20.325 37.0951 20.5173 41.6247 22.5533C39.9667 17.9042 37.6986 12.1741 35.132 7.84354Z" fill="black"/>
<path fill-rule="evenodd" clip-rule="evenodd" d="M33.5998 16.5177C36.0271 16.5177 38.0697 18.2619 38.0697 20.5632C38.0697 22.8512 35.8281 24.6485 33.4074 24.5955C30.4429 24.5291 29.0635 22.9839 29.0635 20.6958C29.0635 18.3945 31.1724 16.5177 33.5998 16.5177Z" fill="url(#paint1_radial_888_228)" stroke="#231F20" stroke-width="0.862159"/>
<path d="M50.0869 15.5035L49.5099 15.6163L48.7008 15.729L48.23 16.074V16.6509" stroke="#666666" stroke-width="0.019896"/>
<path d="M50.3257 16.8824H49.1651L48.3494 17.1145L48.1173 17.466L48.3494 17.9303" stroke="#666666" stroke-width="0.019896"/>
<path d="M50.1997 18.6194L49.51 18.3872L48.8203 18.2744L48.23 18.5065L48.1173 19.0901" stroke="#666666" stroke-width="0.019896"/>
<path fill-rule="evenodd" clip-rule="evenodd" d="M35.1318 7.611C31.5173 11.8953 28.1682 16.4382 26.1985 21.7438C25.217 24.4032 24.063 28.5349 23.8906 31.3602C23.811 32.5606 23.6783 34.318 25.396 34.0329C25.8205 33.9599 26.3311 33.5885 26.676 33.3365C27.6575 32.6335 28.5727 32.0963 29.6869 31.5989C30.9868 31.0286 32.5519 30.5776 33.9645 30.6704C35.6225 30.7699 37.2408 31.2673 38.4942 32.408C39.1043 32.9585 39.9002 34.2584 40.8154 34.2584C42.4933 34.2584 42.6724 29.2512 42.6724 28.1238C42.6724 26.4658 42.2081 24.7215 41.7372 23.1365C40.1456 17.7911 37.5922 12.6048 35.1318 7.611Z" stroke="#231F20" stroke-width="0.994799"/>
</g>
<path d="M21.2639 56.6745C20.3834 56.6745 19.613 56.5345 18.9527 56.2543C18.3023 55.9742 17.7971 55.564 17.4369 55.0237C17.0767 54.4734 16.8966 53.803 16.8966 53.0126C16.8966 52.6224 16.9416 52.2122 17.0317 51.782C17.3818 50.1611 18.0872 48.9105 19.1478 48.03C20.2083 47.1496 21.6891 46.7093 23.5901 46.7093C24.1904 46.7093 24.7257 46.7443 25.1959 46.8144C25.6662 46.8844 26.1014 46.9895 26.5016 47.1296L25.9763 49.5458C25.5761 49.3757 25.1459 49.2607 24.6857 49.2006C24.2354 49.1406 23.7652 49.1106 23.2749 49.1106C22.4145 49.1106 21.6891 49.3207 21.0988 49.7409C20.5085 50.1611 20.1133 50.8415 19.9132 51.782C19.8231 52.1722 19.7781 52.5124 19.7781 52.8025C19.7781 53.3128 19.9282 53.688 20.2283 53.9281C20.5385 54.1582 21.0538 54.2733 21.7741 54.2733C22.0343 54.2733 22.2794 54.2583 22.5095 54.2283C22.7496 54.1882 22.9798 54.1382 23.1999 54.0782L23.5 52.6674H21.579L21.9542 50.9265H26.2315L25.1959 55.7891C24.7757 56.0192 24.2354 56.2243 23.5751 56.4044C22.9247 56.5845 22.1543 56.6745 21.2639 56.6745ZM30.5742 56.6745C29.7538 56.6745 29.0585 56.5395 28.4882 56.2693C27.9179 55.9892 27.4826 55.614 27.1825 55.1437C26.8923 54.6635 26.7472 54.1232 26.7472 53.5229C26.7472 53.2628 26.7773 52.9926 26.8373 52.7125L28.0829 46.8594H30.9044L29.7038 52.5024C29.6438 52.7825 29.6137 53.0276 29.6137 53.2377C29.6137 53.6079 29.7288 53.8731 29.9589 54.0332C30.189 54.1932 30.5642 54.2733 31.0845 54.2733C31.7248 54.2733 32.2051 54.1382 32.5253 53.8681C32.8454 53.5979 33.0706 53.1427 33.2006 52.5024L34.4013 46.8594H37.2227L35.9621 52.8025C35.6819 54.1632 35.1016 55.1487 34.2212 55.7591C33.3407 56.3694 32.1251 56.6745 30.5742 56.6745ZM38.115 56.6745C37.6948 56.6745 37.2996 56.6445 36.9294 56.5845C36.5592 56.5345 36.214 56.4494 35.8938 56.3294L36.3891 53.9881C36.8493 54.1882 37.3996 54.2883 38.04 54.2883C38.6403 54.2883 39.0655 54.1782 39.3156 53.9581C39.5658 53.738 39.7408 53.3728 39.8409 52.8626L41.1166 46.8594H43.938L42.5723 53.3128C42.3422 54.4034 41.867 55.2388 41.1466 55.8191C40.4262 56.3894 39.4157 56.6745 38.115 56.6745Z" fill="white"/>
<path d="M20.9575 46.7443C20.5373 46.7443 20.1421 46.7143 19.7719 46.6543C19.4017 46.6043 19.0565 46.5192 18.7363 46.3992L19.2316 44.0579C19.6918 44.258 20.2421 44.3581 20.8825 44.3581C21.4828 44.3581 21.908 44.248 22.1581 44.0279C22.4083 43.8078 22.5833 43.4426 22.6834 42.9323L23.9591 36.9292H26.7805L25.4148 43.3826C25.1847 44.4731 24.7095 45.3086 23.9891 45.8889C23.2687 46.4592 22.2582 46.7443 20.9575 46.7443ZM30.4765 46.7443C29.656 46.7443 28.9607 46.6093 28.3904 46.3391C27.8201 46.059 27.3848 45.6838 27.0847 45.2135C26.7945 44.7333 26.6495 44.193 26.6495 43.5927C26.6495 43.3326 26.6795 43.0624 26.7395 42.7823L27.9852 36.9292H30.8066L29.606 42.5722C29.546 42.8523 29.516 43.0974 29.516 43.3075C29.516 43.6777 29.631 43.9429 29.8611 44.103C30.0913 44.263 30.4665 44.3431 30.9867 44.3431C31.6271 44.3431 32.1073 44.208 32.4275 43.9379C32.7476 43.6677 32.9728 43.2125 33.1028 42.5722L34.3035 36.9292H37.1249L35.8643 42.8723C35.5841 44.233 35.0038 45.2185 34.1234 45.8289C33.2429 46.4392 32.0273 46.7443 30.4765 46.7443ZM41.2889 46.7443C40.4085 46.7443 39.6381 46.6043 38.9777 46.3241C38.3274 46.044 37.8221 45.6338 37.4619 45.0935C37.1017 44.5432 36.9216 43.8728 36.9216 43.0824C36.9216 42.6922 36.9667 42.282 37.0567 41.8518C37.4069 40.2309 38.1123 38.9803 39.1728 38.0998C40.2334 37.2194 41.7141 36.7791 43.6151 36.7791C44.2154 36.7791 44.7507 36.8141 45.221 36.8842C45.6912 36.9542 46.1264 37.0593 46.5267 37.1993L46.0014 39.6156C45.6012 39.4455 45.1709 39.3305 44.7107 39.2704C44.2605 39.2104 43.7902 39.1804 43.3 39.1804C42.4395 39.1804 41.7141 39.3905 41.1238 39.8107C40.5335 40.2309 40.1383 40.9113 39.9382 41.8518C39.8482 42.242 39.8031 42.5822 39.8031 42.8723C39.8031 43.3826 39.9532 43.7578 40.2534 43.9979C40.5635 44.228 41.0788 44.3431 41.7992 44.3431C42.0593 44.3431 42.3044 44.3281 42.5346 44.2981C42.7747 44.258 43.0048 44.208 43.2249 44.148L43.5251 42.7372H41.6041L41.9793 40.9963H46.2565L45.221 45.8589C44.8008 46.089 44.2605 46.2941 43.6001 46.4742C42.9498 46.6543 42.1794 46.7443 41.2889 46.7443Z" fill="black"/>
</g>
<rect x="0.335486" y="0.335486" width="66.4262" height="66.4262" rx="33.2131" stroke="black" stroke-width="0.670972"/>
<path d="M87.4467 65.8077C85.2735 65.8077 83.6334 65.22 82.5264 64.0446C81.433 62.8692 80.8863 61.2769 80.8863 59.2678C80.8863 57.819 81.1254 56.5684 81.6038 55.516C82.0822 54.4499 82.8065 53.6299 83.7769 53.0559C84.761 52.4818 86.0048 52.1948 87.5082 52.1948C88.2872 52.1948 88.9911 52.2495 89.6198 52.3588C90.2622 52.4545 90.8636 52.598 91.4239 52.7893V54.7165C90.3032 54.3064 89.0595 54.1014 87.6927 54.1014C86.0116 54.1014 84.8293 54.5456 84.146 55.434C83.4763 56.3224 83.1414 57.6003 83.1414 59.2678C83.1414 60.7849 83.4968 61.9398 84.2075 62.7325C84.9182 63.5252 86.0184 63.9216 87.5082 63.9216C88.6836 63.9216 89.6335 63.7849 90.3579 63.5115V59.8213H87.0572V58.3657H92.2645V64.7211C91.8408 64.9945 91.2326 65.2473 90.4399 65.4797C89.6608 65.6983 88.6631 65.8077 87.4467 65.8077ZM100.068 65.8077C98.25 65.8077 96.8354 65.3703 95.824 64.4956C94.8263 63.6209 94.3274 62.3566 94.3274 60.7029V52.3998H96.5621V60.6208C96.5621 61.7279 96.8628 62.5548 97.4642 63.1015C98.0792 63.6482 98.9471 63.9216 100.068 63.9216C101.175 63.9216 102.029 63.6482 102.63 63.1015C103.246 62.5548 103.553 61.7279 103.553 60.6208V52.3998H105.767V60.7029C105.767 62.3566 105.268 63.6209 104.271 64.4956C103.273 65.3703 101.872 65.8077 100.068 65.8077ZM110.294 65.8077C109.174 65.8077 108.217 65.6505 107.424 65.3362V63.45C107.752 63.5867 108.135 63.7029 108.572 63.7986C109.023 63.8806 109.468 63.9216 109.905 63.9216C110.821 63.9216 111.456 63.7371 111.812 63.368C112.181 62.9853 112.365 62.3771 112.365 61.5434V52.3998H114.6V61.9124C114.6 63.1698 114.238 64.1334 113.513 64.8031C112.802 65.4728 111.73 65.8077 110.294 65.8077ZM115.963 65.6027L121.007 52.3998H123.508L128.51 65.6027H126.214L124.902 62.1995H119.592L118.28 65.6027H115.963ZM119.941 60.4773H124.533L122.237 54.4294L119.941 60.4773ZM130.708 65.6027V52.3998H136.776C138.252 52.3998 139.325 52.7825 139.995 53.5479C140.678 54.2996 141.02 55.3247 141.02 56.6231C141.02 57.5525 140.788 58.3452 140.323 59.0012C139.858 59.6573 139.188 60.1151 138.314 60.3748C138.56 60.5525 138.751 60.7439 138.888 60.9489C139.024 61.1539 139.161 61.4272 139.298 61.7689L140.958 65.6027H138.662L137.043 61.9124C136.892 61.5571 136.708 61.3042 136.489 61.1539C136.284 61.0035 135.929 60.9284 135.423 60.9284H132.942V65.6027H130.708ZM132.942 59.1242H136.182C136.988 59.1242 137.624 58.9261 138.088 58.5297C138.553 58.1334 138.785 57.4978 138.785 56.6231C138.785 54.9693 137.986 54.1424 136.387 54.1424H132.942V59.1242ZM141.91 65.6027L146.954 52.3998H149.455L154.457 65.6027H152.161L150.849 62.1995H145.539L144.227 65.6027H141.91ZM145.888 60.4773H150.48L148.184 54.4294L145.888 60.4773ZM158.337 65.6027V54.1424H154.113V52.3998H164.774V54.1424H160.571V65.6027H158.337Z" fill="black"/>
<path d="M82.5382 22.4269C81.9186 22.4269 81.3368 22.3815 80.7927 22.2908C80.2487 22.2153 79.75 22.0868 79.2967 21.9055L79.954 18.8453C80.2865 18.9964 80.6643 19.1173 81.0874 19.208C81.5257 19.2836 81.979 19.3213 82.4475 19.3213C83.1275 19.3213 83.6565 19.2458 84.0343 19.0947C84.4272 18.9284 84.7219 18.6791 84.9183 18.3466C85.1299 17.999 85.2886 17.5532 85.3943 17.0092L87.3891 7.60198H91.0387L88.9079 17.6892C88.5754 19.2156 87.9105 20.3867 86.9131 21.2028C85.9157 22.0188 84.4574 22.4269 82.5382 22.4269ZM88.913 22.2002L97.5722 7.60198H101.516L104.01 22.2002H100.474L99.8617 18.8906H94.852L92.8573 22.2002H88.913ZM95.9174 16.1932H99.7483L98.9096 11.1155L95.9174 16.1932ZM108.392 22.2002L105.898 7.60198H109.57L111.089 18.0293L117.028 7.60198H120.995L112.336 22.2002H108.392ZM116.23 22.2002L124.889 7.60198H128.833L131.327 22.2002H127.79L127.178 18.8906H122.169L120.174 22.2002H116.23ZM123.234 16.1932H127.065L126.226 11.1155L123.234 16.1932ZM86.6864 43.4269C85.4472 43.4269 84.3667 43.1926 83.4449 42.7241C82.5382 42.2406 81.8808 41.5681 81.4728 40.7067C81.0648 39.8302 80.9816 38.8101 81.2234 37.6465L83.1275 28.602H86.7771L84.941 37.3065C84.7294 38.319 84.7974 39.0746 85.145 39.5733C85.5077 40.072 86.2406 40.3213 87.3438 40.3213C88.4621 40.3213 89.3084 40.072 89.8826 39.5733C90.4569 39.0746 90.8498 38.319 91.0613 37.3065L92.8975 28.602H96.547L94.6429 37.6465C94.2198 39.6111 93.3281 41.0694 91.9681 42.0214C90.608 42.9584 88.8474 43.4269 86.6864 43.4269ZM100.255 43.4269C99.2876 43.4269 98.396 43.3513 97.58 43.2002C96.7791 43.0642 96.1066 42.8602 95.5625 42.5881L96.2199 39.4826C96.8395 39.7697 97.5271 40.004 98.2827 40.1853C99.0534 40.3667 99.8015 40.4573 100.527 40.4573C101.434 40.4573 102.129 40.3742 102.612 40.208C103.096 40.0418 103.398 39.6791 103.519 39.1199C103.595 38.7421 103.549 38.4399 103.383 38.2132C103.217 37.9865 102.899 37.7901 102.431 37.6238C101.978 37.4425 101.358 37.2309 100.572 36.9891C99.1667 36.5509 98.2298 36.0144 97.7613 35.3797C97.308 34.7299 97.2022 33.8307 97.444 32.6822C97.7462 31.2919 98.4716 30.2265 99.6201 29.486C100.784 28.7455 102.34 28.3753 104.29 28.3753C105.136 28.3753 105.944 28.4433 106.715 28.5793C107.486 28.7002 108.105 28.8438 108.574 29.01L107.894 32.1382C107.289 31.8813 106.67 31.6924 106.035 31.5715C105.416 31.4506 104.796 31.3901 104.176 31.3901C103.36 31.3901 102.68 31.4657 102.136 31.6168C101.607 31.7679 101.282 32.1155 101.162 32.6596C101.101 32.9769 101.139 33.2338 101.275 33.4303C101.411 33.6116 101.683 33.7778 102.091 33.929C102.514 34.0801 103.088 34.2614 103.814 34.473C104.947 34.7903 105.778 35.1757 106.307 35.6291C106.851 36.0673 107.184 36.5811 107.305 37.1705C107.425 37.7447 107.41 38.3946 107.259 39.1199C106.987 40.4045 106.262 41.4472 105.083 42.2481C103.919 43.0339 102.31 43.4269 100.255 43.4269ZM108.272 43.2002L111.355 28.602H122.122L121.532 31.4128H114.415L113.757 34.473H120.036L119.447 37.3292H113.168L112.511 40.3893H119.628L119.039 43.2002H108.272ZM120.801 43.2002L123.884 28.602H131.183C132.15 28.602 132.966 28.8135 133.631 29.2367C134.311 29.6447 134.787 30.2265 135.059 30.9821C135.346 31.7226 135.377 32.5991 135.15 33.6116C134.953 34.5939 134.523 35.4553 133.858 36.1958C133.208 36.9362 132.415 37.4878 131.478 37.8505C131.644 38.0168 131.765 38.2057 131.84 38.4172C131.931 38.6137 132.014 38.8933 132.09 39.2559L132.996 43.2002H129.188L128.327 39.4826C128.251 39.135 128.123 38.9008 127.941 38.7799C127.775 38.6439 127.496 38.5759 127.103 38.5759H125.425L124.451 43.2002H120.801ZM126.015 35.7651H128.712C129.422 35.7651 130.012 35.5913 130.48 35.2437C130.964 34.881 131.281 34.337 131.432 33.6116C131.599 32.8862 131.583 32.3422 131.387 31.9795C131.206 31.6017 130.677 31.4128 129.8 31.4128H126.944L126.015 35.7651ZM147.069 43.4269C145.482 43.4269 144.168 43.1397 143.125 42.5655C142.097 41.9912 141.387 41.1601 140.994 40.072C140.601 38.9688 140.571 37.6465 140.903 36.1051C141.432 33.6721 142.49 31.7755 144.077 30.4154C145.664 29.0553 147.81 28.3753 150.515 28.3753C151.406 28.3753 152.2 28.4282 152.895 28.534C153.59 28.6398 154.24 28.7984 154.844 29.01L154.164 32.1382C153.575 31.8964 152.948 31.7302 152.283 31.6395C151.633 31.5488 150.938 31.5035 150.197 31.5035C148.641 31.5035 147.409 31.8813 146.502 32.6369C145.596 33.3774 144.969 34.5334 144.621 36.1051C144.289 37.6163 144.357 38.6968 144.825 39.3466C145.309 39.9964 146.283 40.3213 147.749 40.3213C148.187 40.3213 148.641 40.2911 149.109 40.2307C149.578 40.1551 149.971 40.0644 150.288 39.9586L150.877 37.1932H147.727L148.203 34.9037H154.414L152.872 42.1348C152.283 42.4672 151.505 42.7695 150.537 43.0415C149.57 43.2984 148.414 43.4269 147.069 43.4269ZM154.537 43.2002L157.62 28.602H164.919C165.887 28.602 166.703 28.8135 167.367 29.2367C168.048 29.6447 168.524 30.2265 168.796 30.9821C169.083 31.7226 169.113 32.5991 168.886 33.6116C168.69 34.5939 168.259 35.4553 167.594 36.1958C166.944 36.9362 166.151 37.4878 165.214 37.8505C165.38 38.0168 165.501 38.2057 165.577 38.4172C165.667 38.6137 165.751 38.8933 165.826 39.2559L166.733 43.2002H162.925L162.063 39.4826C161.988 39.135 161.859 38.9008 161.678 38.7799C161.512 38.6439 161.232 38.5759 160.839 38.5759H159.162L158.187 43.2002H154.537ZM159.751 35.7651H162.449C163.159 35.7651 163.748 35.5913 164.217 35.2437C164.7 34.881 165.018 34.337 165.169 33.6116C165.335 32.8862 165.32 32.3422 165.123 31.9795C164.942 31.6017 164.413 31.4128 163.537 31.4128H160.68L159.751 35.7651ZM175.15 43.4269C173.699 43.4269 172.483 43.1548 171.501 42.6108C170.533 42.0668 169.861 41.2432 169.483 40.14C169.105 39.0368 169.098 37.6465 169.46 35.9691C170.035 33.264 171.04 31.3221 172.475 30.1434C173.911 28.9647 175.875 28.3753 178.369 28.3753C179.82 28.3753 181.029 28.6473 181.996 29.1913C182.978 29.7203 183.651 30.5439 184.013 31.6622C184.391 32.7804 184.391 34.2161 184.013 35.9691C183.469 38.523 182.472 40.4045 181.021 41.6134C179.585 42.8224 177.628 43.4269 175.15 43.4269ZM175.807 40.3213C177.032 40.3213 177.999 39.9738 178.709 39.2786C179.434 38.5683 179.956 37.4652 180.273 35.9691C180.515 34.8357 180.598 33.9441 180.522 33.2943C180.447 32.6444 180.175 32.1835 179.706 31.9115C179.253 31.6395 178.58 31.5035 177.689 31.5035C176.45 31.5035 175.475 31.8435 174.765 32.5235C174.054 33.1885 173.526 34.337 173.178 35.9691C172.966 37.0118 172.898 37.8581 172.974 38.5079C173.049 39.1426 173.314 39.6035 173.767 39.8906C174.221 40.1778 174.901 40.3213 175.807 40.3213ZM190.884 43.4269C189.645 43.4269 188.564 43.1926 187.642 42.7241C186.736 42.2406 186.078 41.5681 185.67 40.7067C185.262 39.8302 185.179 38.8101 185.421 37.6465L187.325 28.602H190.975L189.139 37.3065C188.927 38.319 188.995 39.0746 189.343 39.5733C189.705 40.072 190.438 40.3213 191.541 40.3213C192.66 40.3213 193.506 40.072 194.08 39.5733C194.654 39.0746 195.047 38.319 195.259 37.3065L197.095 28.602H200.745L198.84 37.6465C198.417 39.6111 197.526 41.0694 196.166 42.0214C194.806 42.9584 193.045 43.4269 190.884 43.4269ZM199.873 43.2002L202.956 28.602H209.938C211.071 28.602 211.978 28.8362 212.658 29.3047C213.353 29.7732 213.822 30.4003 214.064 31.1861C214.32 31.972 214.351 32.8485 214.154 33.8156C213.852 35.3873 213.187 36.634 212.159 37.5558C211.132 38.4626 209.742 38.9159 207.989 38.9159H204.43L203.523 43.2002H199.873ZM205.019 36.1051H207.649C208.54 36.1051 209.198 35.8935 209.621 35.4704C210.044 35.0472 210.323 34.4881 210.459 33.793C210.626 32.9467 210.588 32.3422 210.346 31.9795C210.119 31.6017 209.59 31.4128 208.759 31.4128H206.016L205.019 36.1051Z" fill="black"/>
<defs>
<radialGradient id="paint0_radial_888_228" cx="0" cy="0" r="1" gradientUnits="userSpaceOnUse" gradientTransform="translate(35.6663 22.277) scale(6.03543 6.03543)">
<stop stop-color="#FBC8B4"/>
<stop offset="1" stop-color="#ED1C24"/>
</radialGradient>
<radialGradient id="paint1_radial_888_228" cx="0" cy="0" r="1" gradientUnits="userSpaceOnUse" gradientTransform="translate(32.0928 18.7033) scale(6.03543 6.03543)">
<stop stop-color="#FBC8B4"/>
<stop offset="1" stop-color="#ED1C24"/>
</radialGradient>
<clipPath id="clip0_888_228">
<rect width="34.9597" height="28.0466" fill="white" transform="translate(19.677 10.2829)"/>
</clipPath>
<clipPath id="clip1_888_228">
<rect width="67.0972" height="67.0972" rx="33.5486" fill="white"/>
</clipPath>
<clipPath id="clip2_888_228">
<rect width="34.9597" height="28.0466" fill="white" transform="translate(16.1035 6.70927)"/>
</clipPath>
</defs>
</svg>
