<svg width="1001" height="1001" viewBox="0 0 1001 1001" fill="none" xmlns="http://www.w3.org/2000/svg">
<g clip-path="url(#clip0_50_2)">
<rect x="0.5" y="0.5" width="1000" height="1000" rx="500" fill="white"/>
<rect x="1.5" y="703.501" width="1000" height="330" fill="#F02D32"/>
<g clip-path="url(#clip1_50_2)">
<path fill-rule="evenodd" clip-rule="evenodd" d="M524.09 113.943C470.222 177.795 420.307 245.501 390.951 324.574C376.322 364.21 359.124 425.788 356.554 467.895C355.368 485.785 353.391 511.978 378.991 507.728C385.317 506.641 392.927 501.106 398.067 497.35C412.696 486.872 426.336 478.866 442.941 471.453C462.314 462.953 485.641 456.232 506.694 457.615C531.405 459.098 555.522 466.511 574.203 483.512C583.296 491.716 595.157 511.089 608.798 511.089C633.804 511.089 636.473 436.463 636.473 419.66C636.473 394.95 629.554 368.954 622.537 345.331C598.815 265.665 560.761 188.369 524.09 113.943Z" fill="white"/>
<path fill-rule="evenodd" clip-rule="evenodd" d="M630.246 369.841C638.351 361.736 645.863 355.806 645.863 344.241C661.975 325.857 676.504 307.868 693.406 290.175C695.581 293.931 709.517 293.733 717.622 288.495C718.117 288.198 718.71 288.495 719.303 288.495C726.32 288.495 735.216 295.315 741.839 293.635C747.868 292.152 750.833 289.088 752.316 283.157C752.909 280.686 749.944 279.994 748.659 278.018C750.932 275.744 757.554 279.401 760.816 269.418C764.276 259.139 754.194 253.999 750.537 252.121C753.107 252.022 757.95 244.214 757.456 240.062C757.159 237.987 752.513 232.748 750.537 231.562C748.955 230.574 747.077 229.98 745.199 229.585C738.873 228.498 731.065 230.079 724.442 227.905C723.652 227.707 722.762 227.015 722.762 226.224C722.663 220.788 726.123 211.794 724.442 207.346C720.686 196.77 718.71 191.333 707.343 188.269C701.116 186.589 696.767 188.665 691.726 191.729C691.034 192.124 690.342 192.717 689.947 193.409C689.848 193.706 689.848 196.671 689.947 196.869C690.342 197.56 691.429 197.857 691.726 198.549C695.284 207.642 700.029 230.574 696.866 240.062C694.691 246.487 686.685 253.307 684.807 262.598C683.127 270.901 680.952 280.983 684.807 283.157L644.974 334.851C638.549 325.264 628.269 326.549 617.199 326.549L630.246 369.841Z" fill="black"/>
<path fill-rule="evenodd" clip-rule="evenodd" d="M396.29 305.693C376.225 302.332 377.411 304.902 372.073 312.612C353.985 312.216 338.961 314.49 321.862 322.891C310.495 328.426 311.78 349.381 309.803 359.067C309.704 359.858 308.914 360.847 308.123 360.847C304.367 356.893 298.733 362.428 299.524 367.864C291.715 368.457 282.819 377.551 282.226 381.603C280.447 393.267 254.65 373.301 245.853 374.684C242.887 375.179 241.108 380.813 240.713 383.284C240.12 386.842 240.614 391.685 244.073 393.761C248.126 396.133 276.296 398.308 277.087 400.581C277.778 402.755 264.83 406.709 263.15 407.5C252.475 412.244 251.585 412.936 247.533 423.117C243.283 433.594 258.801 434.385 266.609 433.396C273.627 432.507 283.412 416.989 290.826 421.338C297.942 425.687 293.198 439.129 292.506 445.554C291.616 453.857 289.837 462.752 299.524 462.752C309.605 462.752 310.693 453.066 311.582 443.874C311.879 440.414 311.286 436.856 311.582 433.396C312.077 427.663 316.92 410.564 325.42 412.64C334.711 414.913 330.461 426.477 349.636 426.477C352.7 426.477 355.962 425.094 358.236 423.117C360.707 420.843 362.189 417.483 363.375 414.32C364.561 411.058 365.056 407.5 365.056 404.04C365.056 399.889 361.794 397.22 358.236 397.22C354.381 397.22 349.834 400.581 347.956 400.581C346.572 400.581 345.485 399.494 344.299 398.901C339.06 396.331 332.932 392.575 328.88 388.423C328.781 388.325 325.618 383.679 325.42 383.284C331.054 381.109 327.397 365.887 321.862 366.085C321.565 364.998 321.664 363.713 321.862 362.527C323.344 354.422 326.211 334.851 332.339 329.711C341.433 322.101 359.916 318.246 372.073 315.972C372.172 324.176 380.969 327.142 387.592 329.711L396.29 305.693Z" fill="black"/>
<path fill-rule="evenodd" clip-rule="evenodd" d="M524.093 117.403C460.736 180.761 421.002 246.095 389.273 329.715C458.463 303.423 553.351 306.29 620.859 336.634C596.149 267.345 562.345 181.946 524.093 117.403Z" fill="black"/>
<path fill-rule="evenodd" clip-rule="evenodd" d="M501.259 246.686C537.435 246.686 567.878 272.681 567.878 306.979C567.878 341.079 534.469 367.865 498.392 367.075C454.21 366.086 433.651 343.056 433.651 308.956C433.651 274.658 465.083 246.686 501.259 246.686Z" fill="url(#paint0_radial_50_2)" stroke="#231F20" stroke-width="12.8494"/>
<path d="M746.982 231.562L738.383 233.243L726.324 234.923L719.306 240.064V248.662" stroke="#666666" stroke-width="0.296525"/>
<path d="M750.539 252.124H733.242L721.084 255.583L717.625 260.822L721.084 267.741" stroke="#666666" stroke-width="0.296525"/>
<path d="M748.66 278.018L738.38 274.559L728.101 272.877L719.304 276.336L717.624 285.034" stroke="#666666" stroke-width="0.296525"/>
<path fill-rule="evenodd" clip-rule="evenodd" d="M524.09 113.943C470.222 177.795 420.307 245.501 390.951 324.574C376.322 364.21 359.124 425.788 356.554 467.895C355.368 485.785 353.391 511.978 378.991 507.728C385.317 506.641 392.927 501.106 398.067 497.35C412.696 486.872 426.336 478.866 442.941 471.453C462.314 462.953 485.641 456.232 506.694 457.615C531.405 459.098 555.522 466.511 574.203 483.512C583.296 491.716 595.157 511.089 608.798 511.089C633.804 511.089 636.473 436.463 636.473 419.66C636.473 394.95 629.554 368.954 622.537 345.331C598.815 265.665 560.761 188.369 524.09 113.943Z" stroke="#231F20" stroke-width="14.8263"/>
</g>
<path d="M317.403 852.735C304.281 852.735 292.799 850.648 282.957 846.472C273.265 842.297 265.734 836.183 260.366 828.131C254.998 819.93 252.314 809.939 252.314 798.159C252.314 792.343 252.985 786.23 254.327 779.818C259.546 755.661 270.059 737.022 285.865 723.899C301.671 710.777 323.74 704.216 352.072 704.216C361.019 704.216 368.997 704.738 376.005 705.782C383.014 706.826 389.5 708.391 395.465 710.479L387.637 746.49C381.672 743.955 375.26 742.241 368.401 741.346C361.69 740.451 354.682 740.004 347.375 740.004C334.551 740.004 323.74 743.135 314.943 749.398C306.145 755.661 300.255 765.801 297.272 779.818C295.93 785.633 295.259 790.703 295.259 795.028C295.259 802.632 297.496 808.224 301.97 811.803C306.592 815.233 314.272 816.948 325.008 816.948C328.885 816.948 332.538 816.724 335.968 816.276C339.547 815.68 342.976 814.934 346.257 814.04L350.73 793.014H322.1L327.692 767.068H391.439L376.005 839.539C369.743 842.968 361.69 846.025 351.849 848.709C342.156 851.393 330.674 852.735 317.403 852.735ZM456.163 852.735C443.935 852.735 433.572 850.722 425.072 846.696C416.573 842.521 410.086 836.929 405.613 829.921C401.288 822.763 399.126 814.711 399.126 805.764C399.126 801.887 399.573 797.861 400.468 793.685L419.033 706.453H461.084L443.19 790.554C442.295 794.729 441.848 798.383 441.848 801.514C441.848 807.031 443.562 810.983 446.992 813.369C450.422 815.755 456.014 816.948 463.768 816.948C473.311 816.948 480.469 814.934 485.24 810.908C490.012 806.882 493.367 800.097 495.306 790.554L513.199 706.453H555.25L536.462 795.028C532.286 815.307 523.638 829.995 510.515 839.091C497.393 848.187 479.276 852.735 456.163 852.735ZM568.548 852.735C562.285 852.735 556.395 852.288 550.878 851.393C545.361 850.648 540.216 849.38 535.444 847.591L542.826 812.698C549.685 815.68 557.886 817.171 567.43 817.171C576.377 817.171 582.714 815.531 586.442 812.25C590.17 808.97 592.779 803.527 594.271 795.922L613.283 706.453H655.333L634.979 802.632C631.55 818.886 624.467 831.337 613.73 839.986C602.994 848.485 587.933 852.735 568.548 852.735Z" fill="white"/>
<path d="M312.839 704.735C306.577 704.735 300.687 704.287 295.169 703.393C289.652 702.647 284.508 701.38 279.736 699.59L287.117 664.697C293.976 667.68 302.178 669.171 311.721 669.171C320.668 669.171 327.005 667.53 330.733 664.25C334.461 660.969 337.071 655.527 338.562 647.922L357.574 558.452H399.625L379.271 654.632C375.841 670.886 368.758 683.337 358.022 691.985C347.285 700.485 332.225 704.735 312.839 704.735ZM454.708 704.735C442.48 704.735 432.117 702.722 423.617 698.696C415.118 694.52 408.631 688.929 404.158 681.92C399.833 674.763 397.671 666.71 397.671 657.763C397.671 653.886 398.118 649.86 399.013 645.685L417.578 558.452H459.629L441.735 642.554C440.84 646.729 440.393 650.382 440.393 653.514C440.393 659.031 442.108 662.982 445.537 665.368C448.967 667.754 454.559 668.947 462.313 668.947C471.856 668.947 479.014 666.934 483.785 662.908C488.557 658.882 491.912 652.097 493.851 642.554L511.745 558.452H553.795L535.007 647.027C530.831 667.307 522.183 681.995 509.061 691.091C495.938 700.187 477.821 704.735 454.708 704.735ZM615.854 704.735C602.732 704.735 591.25 702.647 581.408 698.472C571.716 694.297 564.186 688.183 558.817 680.131C553.449 671.929 550.765 661.939 550.765 650.158C550.765 644.343 551.436 638.229 552.778 631.817C557.997 607.66 568.51 589.021 584.316 575.899C600.122 562.777 622.192 556.216 650.524 556.216C659.47 556.216 667.448 556.737 674.457 557.781C681.465 558.825 687.952 560.391 693.916 562.478L686.088 598.49C680.123 595.955 673.711 594.24 666.852 593.345C660.141 592.451 653.133 592.003 645.826 592.003C633.002 592.003 622.192 595.135 613.394 601.398C604.596 607.66 598.706 617.8 595.724 631.817C594.381 637.633 593.71 642.703 593.71 647.027C593.71 654.632 595.947 660.224 600.421 663.803C605.043 667.232 612.723 668.947 623.459 668.947C627.336 668.947 630.989 668.723 634.419 668.276C637.998 667.68 641.427 666.934 644.708 666.039L649.181 645.014H620.551L626.143 619.068H689.89L674.457 691.538C668.194 694.968 660.141 698.025 650.3 700.709C640.607 703.393 629.125 704.735 615.854 704.735Z" fill="black"/>
</g>
<rect x="7.07895" y="7.07895" width="986.842" height="986.842" rx="493.421" stroke="white" stroke-width="13.1579"/>
<defs>
<radialGradient id="paint0_radial_50_2" cx="0" cy="0" r="1" gradientUnits="userSpaceOnUse" gradientTransform="translate(478.799 279.26) scale(89.9506 89.9506)">
<stop stop-color="#FBC8B4"/>
<stop offset="1" stop-color="#ED1C24"/>
</radialGradient>
<clipPath id="clip0_50_2">
<rect x="0.5" y="0.5" width="1000" height="1000" rx="500" fill="white"/>
</clipPath>
<clipPath id="clip1_50_2">
<rect width="521.031" height="418" fill="white" transform="translate(240.5 100.5)"/>
</clipPath>
</defs>
</svg>
